<svg xmlns="http://www.w3.org/2000/svg" width="175" height="30"><g fill="none" stroke="black" stroke-width="1"><path d="M 0,0 0,439 1321,439 1321,0 Z" /><path d="M 304,271 305,270 308,270 309,271 313,271 314,272 315,272 316,273 317,273 318,274 319,274 326,281 326,282 327,283 327,284 328,285 328,288 329,289 329,298 328,299 328,301 327,302 327,303 326,304 326,305 318,313 317,313 316,314 315,314 314,315 311,315 310,316 303,316 302,315 299,315 298,314 297,314 296,313 295,313 293,311 292,311 288,307 288,306 286,304 286,303 285,302 285,300 284,299 284,287 285,286 285,285 286,284 286,283 287,282 287,281 295,273 296,273 297,272 299,272 300,271 Z" /><path d="M 484,269 485,268 486,268 487,269 491,269 492,270 494,270 495,271 496,271 497,272 498,272 505,279 505,280 506,281 506,282 507,283 507,285 508,286 508,296 507,297 507,299 506,300 506,301 505,302 505,303 502,306 502,307 501,308 500,308 497,311 496,311 495,312 493,312 492,313 490,313 489,314 482,314 481,313 478,313 477,312 476,312 475,311 474,311 472,309 471,309 468,306 468,305 466,303 466,302 464,300 464,297 463,296 463,287 464,286 464,284 465,283 465,281 467,279 467,278 473,272 474,272 475,271 476,271 477,270 478,270 479,269 Z" /><path d="M 326,254 327,253 456,253 457,254 456,255 454,255 453,256 450,256 449,257 446,257 445,258 441,258 440,259 436,259 435,260 431,260 430,261 424,261 423,262 417,262 416,263 406,263 405,264 374,264 373,263 364,263 363,262 357,262 356,261 351,261 350,260 346,260 345,259 342,259 341,258 337,258 336,257 334,257 333,256 330,256 329,255 327,255 Z" /><path d="M 1063,160 1064,159 1078,159 1079,160 1079,164 1078,165 1069,165 1069,209 1078,209 1079,210 1079,214 1078,215 1069,215 1069,260 1078,260 1079,261 1079,265 1078,266 1064,266 1063,265 Z" /><path d="M 1029,160 1030,159 1047,159 1048,160 1049,160 1050,161 1051,161 1053,163 1053,164 1054,165 1054,166 1055,167 1055,194 1054,195 1054,198 1053,199 1053,200 1052,201 1052,202 1051,203 1051,204 1049,206 1049,207 1047,209 1047,210 1046,211 1046,213 1048,215 1048,216 1050,218 1050,219 1052,221 1052,222 1053,223 1053,225 1054,226 1054,228 1055,229 1055,265 1054,266 1050,266 1049,265 1049,232 1048,231 1048,228 1047,227 1047,225 1045,223 1045,222 1044,221 1044,220 1042,218 1042,217 1040,219 1040,220 1039,221 1039,222 1037,224 1037,226 1036,227 1036,229 1035,230 1035,265 1034,266 1030,266 1029,265 Z" /><path d="M 1035,165 1035,217 1035,216 1038,213 1038,212 1040,210 1040,209 1042,207 1042,206 1044,204 1044,203 1045,202 1045,201 1047,199 1047,197 1048,196 1048,194 1049,193 1049,170 1048,169 1048,168 1047,167 1047,166 1046,166 1045,165 Z" /><path d="M 1004,160 1005,159 1012,159 1013,160 1013,166 1014,167 1014,179 1015,180 1015,191 1016,192 1016,203 1017,204 1017,215 1018,216 1018,228 1019,229 1019,240 1020,241 1020,252 1021,253 1021,265 1020,266 1016,266 1015,265 1015,256 1014,255 1014,243 1013,242 1013,238 1012,239 1012,240 1010,242 1010,243 1008,245 1008,246 1006,248 1006,249 1005,250 1005,251 1004,252 1004,253 1003,254 1003,256 1002,257 1002,263 1001,264 1001,265 1000,266 996,266 995,265 995,262 996,261 996,249 997,248 997,237 998,236 998,225 999,224 999,213 1000,212 1000,200 1001,199 1001,188 1002,187 1002,176 1003,175 1003,163 1004,162 Z" /><path d="M 1008,177 1008,189 1007,190 1007,201 1006,202 1006,213 1005,214 1005,225 1004,226 1004,238 1003,239 1003,243 1003,242 1005,240 1005,239 1008,236 1008,235 1010,233 1010,232 1011,231 1011,230 1012,229 1012,219 1011,218 1011,206 1010,205 1010,194 1009,193 1009,181 1008,180 Z" /><path d="M 942,160 943,159 947,159 948,160 948,169 949,170 949,180 950,181 950,192 951,193 951,203 952,204 952,215 953,216 953,226 954,227 954,238 955,239 955,243 955,233 956,232 956,221 957,220 957,209 958,208 958,198 959,197 959,186 960,185 960,174 961,173 961,163 962,162 962,160 963,159 967,159 968,160 968,167 969,168 969,179 970,180 970,190 971,191 971,202 972,203 972,213 973,214 973,225 974,226 974,237 975,238 975,244 975,234 976,233 976,222 977,221 977,211 978,210 978,199 979,198 979,188 980,187 980,176 981,175 981,165 982,164 982,160 983,159 987,159 988,160 988,165 987,166 987,177 986,178 986,188 985,189 985,200 984,201 984,211 983,212 983,223 982,224 982,234 981,235 981,246 980,247 980,257 979,258 979,265 978,266 972,266 971,265 971,262 970,261 970,251 969,250 969,239 968,238 968,228 967,227 967,216 966,215 966,205 965,204 965,193 965,198 964,199 964,209 963,210 963,221 962,222 962,232 961,233 961,244 960,245 960,255 959,256 959,264 957,266 952,266 951,265 951,264 950,263 950,253 949,252 949,241 948,240 948,230 947,229 947,218 946,217 946,207 945,206 945,195 944,194 944,184 943,183 943,172 942,171 Z" /><path d="M 907,160 908,159 933,159 934,160 934,164 933,165 924,165 924,264 922,266 918,266 917,265 917,165 908,165 907,164 Z" /><path d="M 883,160 884,159 899,159 900,160 900,164 899,165 889,165 889,209 899,209 900,210 900,214 899,215 889,215 889,265 888,266 884,266 883,265 Z" /><path d="M 737,160 738,159 753,159 754,160 754,161 755,162 755,180 756,181 756,199 757,200 757,218 758,219 758,237 759,238 759,256 760,257 760,265 758,267 750,267 749,266 749,248 748,247 746,249 746,250 745,251 745,252 744,253 744,254 743,255 743,257 742,258 742,265 740,267 732,267 731,266 731,260 732,259 732,241 733,240 733,222 734,221 734,203 735,202 735,184 736,183 736,165 737,164 Z" /><path d="M 745,193 745,212 744,213 744,231 743,232 743,235 743,234 745,232 745,231 746,230 746,228 747,227 747,211 746,210 746,193 Z" /><path d="M 709,159 717,159 719,161 719,255 726,255 727,256 727,265 725,267 708,267 707,266 707,161 Z" /><path d="M 640,160 641,159 667,159 669,161 669,169 667,171 660,171 660,265 658,267 650,267 649,266 649,171 641,171 640,170 Z" /><path d="M 617,159 633,159 635,161 635,170 634,171 627,171 627,207 634,207 635,208 635,218 634,219 627,219 627,255 634,255 635,256 635,265 633,267 616,267 615,266 615,161 Z" /><path d="M 582,160 583,159 591,159 593,161 593,169 594,170 594,186 595,187 595,202 596,203 596,219 596,206 597,205 597,190 598,189 598,174 599,173 599,161 601,159 609,159 610,160 610,172 609,173 609,184 608,185 608,195 607,196 607,207 606,208 606,219 605,220 605,230 604,231 604,242 603,243 603,254 602,255 602,265 600,267 591,267 590,266 590,257 589,256 589,245 588,244 588,232 587,231 587,220 586,219 586,208 585,207 585,195 584,194 584,183 583,182 583,171 582,170 Z" /><path d="M 857,159 858,158 867,158 868,159 870,159 874,163 874,164 875,165 875,167 876,168 876,257 875,258 875,260 874,261 874,262 872,264 871,264 869,266 864,266 863,267 861,267 860,266 856,266 855,265 854,265 852,263 852,262 851,261 851,260 850,259 850,255 849,254 849,169 850,168 850,165 851,164 851,163 855,159 Z" /><path d="M 860,164 859,165 858,165 856,167 856,257 859,260 866,260 867,259 868,259 869,258 869,255 870,254 870,171 869,170 869,167 867,165 866,165 865,164 Z" /><path d="M 823,159 824,158 833,158 834,159 836,159 837,160 838,160 840,162 840,163 841,164 841,165 842,166 842,198 841,199 837,199 836,198 836,169 835,168 835,167 833,165 832,165 831,164 826,164 825,165 824,165 824,166 823,167 823,168 822,169 822,193 823,194 823,196 824,197 824,199 826,201 826,202 827,203 827,204 829,206 829,207 831,209 831,210 834,213 834,214 836,216 836,217 838,219 838,220 839,221 839,222 840,223 840,224 841,225 841,227 842,228 842,259 841,260 841,261 837,265 836,265 835,266 830,266 829,267 828,267 827,266 823,266 822,265 821,265 817,261 817,259 816,258 816,226 817,225 820,225 822,227 822,256 823,257 823,258 825,260 833,260 836,257 836,230 835,229 835,227 834,226 834,225 833,224 833,223 832,222 832,221 830,219 830,218 828,216 828,215 825,212 825,211 823,209 823,208 821,206 821,205 820,204 820,203 818,201 818,199 817,198 817,195 816,194 816,167 817,166 817,164 818,163 818,162 820,160 821,160 822,159 Z" /><path d="M 682,159 683,158 693,158 694,159 696,159 701,164 701,165 702,166 702,258 701,259 701,260 700,261 700,262 698,264 697,264 696,265 695,265 694,266 690,266 689,267 687,267 686,266 681,266 680,265 679,265 676,262 676,261 675,260 675,259 674,258 674,167 675,166 675,164 680,159 Z" /><path d="M 686,169 685,170 685,254 686,255 690,255 691,254 691,171 689,169 Z" /><path d="M 375,106 376,105 406,105 407,106 414,106 415,107 419,107 420,108 423,108 424,109 428,109 429,110 431,110 432,111 434,111 435,112 437,112 438,113 440,113 441,114 443,114 444,115 445,115 446,116 448,116 449,117 450,117 451,118 452,118 453,119 454,119 455,120 456,120 457,121 458,121 459,122 460,122 461,123 462,123 464,125 465,125 466,126 467,126 469,128 470,128 472,130 473,130 474,131 475,131 476,130 477,130 479,128 481,128 482,127 486,127 487,126 488,126 489,127 493,127 494,128 495,128 496,129 497,129 499,131 500,131 502,133 502,134 504,136 504,137 505,138 505,140 506,141 506,150 505,151 505,152 504,153 504,154 503,155 503,156 501,158 502,158 512,168 512,169 515,172 515,173 517,175 517,176 519,178 519,179 520,180 520,181 521,182 521,184 522,185 522,186 523,187 523,190 524,191 524,204 523,205 523,207 522,208 522,209 521,210 521,212 519,214 519,215 517,217 517,218 507,228 506,228 503,231 502,231 500,233 499,233 497,235 496,235 495,236 494,236 492,238 491,238 490,239 489,239 488,240 487,240 486,241 485,241 484,242 482,242 481,243 480,243 479,244 478,244 477,245 475,245 474,246 472,246 471,247 470,247 469,248 467,248 466,249 463,249 462,250 318,250 317,249 314,249 313,248 310,248 309,247 307,247 306,246 304,246 303,245 301,245 300,244 299,244 298,243 296,243 295,242 294,242 293,241 291,241 290,240 289,240 288,239 287,239 286,238 285,238 284,237 283,237 281,235 280,235 279,234 278,234 276,232 275,232 272,229 271,229 263,221 263,220 260,217 260,216 259,215 259,214 258,213 258,212 257,211 257,208 256,207 256,194 257,193 257,190 258,189 258,187 259,186 259,185 260,184 260,183 261,182 261,181 262,180 262,179 264,177 264,176 266,174 266,173 269,170 269,169 280,158 281,158 278,155 278,154 277,153 277,151 276,150 276,141 277,140 277,138 278,137 278,136 280,134 280,133 282,131 283,131 285,129 286,129 287,128 288,128 289,127 293,127 294,126 295,126 296,127 300,127 301,128 302,128 303,129 304,129 305,130 306,130 307,131 308,131 309,130 310,130 312,128 313,128 315,126 316,126 317,125 318,125 320,123 321,123 322,122 323,122 324,121 325,121 326,120 327,120 328,119 329,119 330,118 331,118 332,117 333,117 334,116 336,116 337,115 338,115 339,114 341,114 342,113 343,113 344,112 346,112 347,111 350,111 351,110 353,110 354,109 357,109 358,108 362,108 363,107 367,107 368,106 Z" /><path d="M 445,182 444,183 443,183 442,184 441,184 439,186 438,186 437,187 437,188 435,190 435,191 434,192 434,195 433,196 433,201 434,202 434,205 435,206 435,207 438,210 438,211 439,211 441,213 442,213 443,214 444,214 445,215 455,215 456,214 457,214 458,213 459,213 460,212 461,212 464,209 464,208 465,207 465,206 466,205 466,204 467,203 467,195 466,194 466,192 465,191 465,190 463,188 463,187 462,186 461,186 459,184 458,184 457,183 456,183 455,182 Z" /><path d="M 326,182 325,183 324,183 323,184 322,184 318,188 318,189 317,190 317,191 316,192 316,193 315,194 315,203 316,204 316,205 317,206 317,207 318,208 318,209 321,212 322,212 324,214 326,214 327,215 337,215 338,214 339,214 340,213 341,213 347,207 347,206 348,205 348,202 349,201 349,196 348,195 348,193 347,192 347,191 346,190 346,189 341,184 340,184 339,183 338,183 337,182 Z" /></g></svg>